<?xml version="1.0" encoding="utf-8"?>
<!-- Generator: Adobe Illustrator 22.0.1, SVG Export Plug-In . SVG Version: 6.00 Build 0)  -->
<svg version="1.1" id="Calque_1" xmlns="http://www.w3.org/2000/svg" xmlns:xlink="http://www.w3.org/1999/xlink" x="0px" y="0px"
	 viewBox="0 0 512 512" style="enable-background:new 0 0 512 512;" xml:space="preserve">
<style type="text/css">
	.st0{fill:#E20613;}
</style>
<g>
	<g>
		<path class="st0" d="M256.2,315.2c-4.4-4.3-8.7-8.3-12.8-12.4c-9.2-9.2-18.3-18.5-27.5-27.8c-6-6-12-11.8-18-17.7
			c-0.5-0.5-0.4-2-0.1-2.8c0.2-0.7,1.1-1.2,1.7-1.8c27.6-27.6,55.1-55.1,82.7-82.6c0.9-0.9,2-1.8,3.1-2.7
			c-10-10.1-19.7-19.9-29.4-29.8c-39.5,39.5-78.8,78.8-117.8,117.9c39.2,39.2,78.5,78.5,117.6,117.6
			C315.5,313.3,375.8,253,436,192.8c21.6,21.7,42.6,42.7,63.9,64.1c-5.7,5.5-11.6,11.2-17.4,16.9c-10.5,10.3-21.1,20.6-31.5,31
			c-8,8-15.7,16.2-23.7,24.2c-10.7,10.8-21.5,21.4-32.2,32.2c-10.8,10.9-21.4,21.8-32.2,32.7c-14.6,14.7-29.2,29.3-43.8,43.9
			c-15.5,15.4-31,30.8-46.5,46.2c-5,5-9.9,10.1-14.9,15.1c-1.4,1.4-2.8,1.3-4.3-0.1c-18.1-18.1-36.3-36.2-54.4-54.3
			c-12.5-12.5-24.7-25.2-37.3-37.7c-16.1-16-32.3-31.9-48.4-47.9c-11.5-12.1-23.1-24.1-34.9-36c-16-16.1-32.1-32.2-48.2-48.2
			c-5.6-5.6-11.2-11.2-16.9-16.7c-1.6-1.6-1.6-2.8-0.1-4.4c18.1-18.1,36.2-36.4,54.3-54.5c20.9-20.8,41.9-41.4,62.7-62.3
			c22.3-22.3,44.4-44.8,66.7-67.1c18.8-18.9,37.8-37.7,56.7-56.5c1.6-1.6,2.8-1.6,4.4,0c17.4,17.4,34.9,34.7,52.3,52.1
			c20.8,20.9,41.5,41.8,62.2,62.7c11,11.1,21.9,22.2,33.2,33c2.1,2,1,2.6-0.2,3.8c-6.6,6.7-13.2,13.3-19.8,19.9
			c-12.2,12.3-24.4,24.7-36.6,37c-14.6,14.7-29.2,29.3-43.9,43.9c-9.2,9.1-18.6,18.1-27.7,27.2C270.2,300.5,263.2,308,256.2,315.2z"
			/>
	</g>
</g>
</svg>
